<svg width="19" height="19" viewBox="0 0 19 19" fill="none" xmlns="http://www.w3.org/2000/svg">
<g clip-path="url(#clip0_3_34)">
<path d="M13.375 9.25H12.8125V7.5625C12.8125 5.59844 11.2141 4 9.25 4C7.28594 4 5.6875 5.59844 5.6875 7.5625V9.25H5.125C4.50391 9.25 4 9.75391 4 10.375V14.875C4 15.4961 4.50391 16 5.125 16H13.375C13.9961 16 14.5 15.4961 14.5 14.875V10.375C14.5 9.75391 13.9961 9.25 13.375 9.25ZM10.1875 13.1875C10.1875 13.7055 9.76797 14.125 9.25 14.125C8.73203 14.125 8.3125 13.7055 8.3125 13.1875V12.0625C8.3125 11.5445 8.73203 11.125 9.25 11.125C9.76797 11.125 10.1875 11.5445 10.1875 12.0625V13.1875ZM10.9375 9.25H7.5625V7.5625C7.5625 6.63203 8.31953 5.875 9.25 5.875C10.1805 5.875 10.9375 6.63203 10.9375 7.5625V9.25Z" fill="#74788D"/>
</g>
<defs>
<clipPath id="clip0_3_34">
<rect width="10.5" height="12" fill="white" transform="translate(4 4)"/>
</clipPath>
</defs>
</svg>
